<?xml version="1.0" encoding="UTF-8"?><svg id="Layer_1" xmlns="http://www.w3.org/2000/svg" viewBox="0 0 299.79 299.79"><circle cx="149.9" cy="149.9" r="129.9" style="fill:#fff; stroke:#5cc3b0; stroke-miterlimit:10; stroke-width:40px;"/><path d="M219.33,138.6h0c-1.3-1.15-3-1.72-4.73-1.58l-6.52-.02c-.59,0-1.18,.11-1.73,.32l-4.11,.74c-2.11,.38-4.13,1.14-5.97,2.25-1.5,.91-3.05,1.88-3.32,2.12l-41.33,36.66c-.99,.88-2.48,.88-3.46,0l-41.33-36.66c-.27-.24-1.81-1.21-3.32-2.12-1.83-1.11-3.86-1.87-5.97-2.25l-4.11-.74c-.55-.21-1.14-.32-1.73-.32l-6.52,.02c-1.73-.14-3.43,.43-4.73,1.58h0c-2.76,2.44-4.34,5.94-4.34,9.63v24.14c0,4.03,2.38,7.68,6.06,9.3l8.26,3.65c1.75,.77,3.65,1.18,5.56,1.18h107.78c1.92,0,3.81-.4,5.56-1.18l8.26-3.65c3.68-1.63,6.06-5.28,6.06-9.3v-24.14c0-3.68-1.58-7.19-4.34-9.63Z" style="fill:#5cc3b0;"/><line x1="35.83" y1="87.7" x2="269.35" y2="87.7" style="fill:none; stroke:#5cc3b0; stroke-miterlimit:10; stroke-width:30px;"/></svg>